<?xml version="1.0" encoding="utf-8"?>
<!-- Generator: Adobe Illustrator 19.2.1, SVG Export Plug-In . SVG Version: 6.00 Build 0)  -->
<svg version="1.1" xmlns="http://www.w3.org/2000/svg" xmlns:xlink="http://www.w3.org/1999/xlink" x="0px" y="0px"
	 viewBox="0 0 819.3 270.7" style="enable-background:new 0 0 819.3 270.7;" xml:space="preserve">
<style type="text/css">
	.st0{fill:#FFFFFF;}
	.st1{fill:none;}
	.st2{fill:#FFFFFF;stroke:#FFFFFF;stroke-width:3;stroke-miterlimit:10;}
</style>
<g id="Layer_2">
</g>
<g id="Layer_1">
	<g>
		<g>
			<g>
				<polygon class="st0" points="181.5,192.7 181.5,192.7 181.5,192.7 				"/>
				<path class="st0" d="M178.8,199.2C178.8,199.2,178.7,199.2,178.8,199.2L178.8,199.2c-0.1,0.1-0.1,0.1,0,0.2
					C178.8,199.4,178.8,199.3,178.8,199.2z"/>
				<path class="st0" d="M186.4,200.7c0-0.1,0-0.1,0-0.2c-0.1,0.1-0.2,0.1-0.3,0.1c0,0,0,0,0,0c0,0,0,0,0.1,0
					C186.3,200.7,186.4,200.7,186.4,200.7z"/>
				<path class="st0" d="M206.1,172.9C206.1,172.9,206,172.9,206.1,172.9C206,172.9,206.1,172.9,206.1,172.9
					C206.1,172.9,206.1,172.9,206.1,172.9z"/>
				<path class="st0" d="M174.4,194.1C174.4,194.1,174.3,194,174.4,194.1l-0.1-0.2c0,0-0.1,0-0.1,0c0,0,0,0,0.1,0
					C174.3,194,174.3,194.1,174.4,194.1z"/>
				<path class="st0" d="M167.1,169.7c-0.1,0.1-0.2,0.1-0.3,0.1c0.1,0,0.1,0.1,0.2,0.1C167,169.9,167,169.8,167.1,169.7z"/>
				<path class="st0" d="M154.4,181.5c0,0.1,0,0.1-0.1,0.2l0.3-0.1C154.5,181.6,154.5,181.6,154.4,181.5z"/>
				<path class="st0" d="M173.5,193.9C173.5,193.9,173.5,193.9,173.5,193.9C173.5,193.9,173.5,193.9,173.5,193.9L173.5,193.9z"/>
				<path class="st0" d="M141.3,204.1C141.3,204.1,141.3,204.1,141.3,204.1C141.3,204.1,141.3,204.1,141.3,204.1
					C141.3,204.1,141.3,204.1,141.3,204.1C141.3,204.1,141.3,204.1,141.3,204.1z"/>
				<path class="st0" d="M176.8,193.5C176.8,193.5,176.8,193.6,176.8,193.5L176.8,193.5C176.8,193.6,176.8,193.6,176.8,193.5z"/>
				<path class="st0" d="M151.6,185C151.6,185,151.6,185,151.6,185C151.6,185.1,151.7,185.1,151.6,185
					C151.7,185,151.7,185,151.6,185z"/>
				<path class="st0" d="M140.7,197.6c0-0.2-0.2-0.6-0.4-0.7c0,0-0.1,0-0.2-0.1v11.4c0.1,0,0.1-0.1,0.2-0.1l0.3-0.1
					c1.3-0.5,1.9-0.7,2.1-1.2c0.1-0.2,0.1-0.4,0-0.7c0.3,0.1,0.6,0.2,0.9,0.2c0.5,0,1-0.2,1.2-0.5c1.1-1.4,2.2-2.9,3.3-4.4
					c0.2-0.3,0.3-0.6,0.2-0.9c-0.1-0.3-0.3-0.6-0.8-0.8c-0.7-0.4-1.5-0.8-2.2-1.1l-0.8-0.4c0,0,0-0.1-0.1-0.1l-0.1-0.1
					c0.1-0.1,0.1-0.2,0.2-0.3l0.3-0.5l-0.7-0.5l-0.2,0.1c-0.1,0.1-0.3,0.2-0.4,0.3c-0.3,0.2-0.7,0.5-0.9,0.8
					c-0.4,0.7-0.9,0.9-1.4,0.9c-0.1,0-0.2,0-0.3,0c-0.1,0-0.2,0-0.3,0c-0.1,0-0.2,0-0.3,0l0-0.2
					C140.7,198.2,140.7,197.9,140.7,197.6z M141.3,204.1C141.3,204.1,141.3,204.1,141.3,204.1C141.3,204.1,141.3,204.1,141.3,204.1
					C141.3,204.1,141.3,204.1,141.3,204.1C141.3,204.1,141.3,204.1,141.3,204.1z"/>
				<path class="st0" d="M221.8,142.9c0.2-0.1,0.5-0.1,0.7-0.2c0.3-0.1,0.6-0.1,0.9-0.2c0.2-0.1,0.3-0.2,0.5-0.3
					c-0.9-0.5-1.9-0.7-2.9-0.7h-1.1c-0.1,0.6-0.2,1.1-0.5,1.6c-0.6,1.3-1.2,2.6-1.8,3.9c-0.2,0.4-0.2,0.8-0.2,1.1
					c0,0.7,0,1.5,0.1,2.3c0.1,0.5,0.2,0.9,0.4,1.2c1.4,2,2.8,3.7,4.1,5.4c0.2,0.3,0.5,0.4,0.8,0.6c0.1,0.1,0.2,0.1,0.4,0.2l0.1,0.1
					l0.6-0.3l0-1.3c0-1.1,0-2.2,0-3.3c0-0.3,0.1-0.5,0.1-0.5c0.4-0.2,0.6-0.5,0.7-0.8c0.1-0.4-0.1-0.9-0.4-1.2
					c-0.3-0.4-0.4-0.7-0.3-0.9c0-0.2,0.2-0.4,0.5-0.5c0.1-0.1,0.1-0.2,0.1-0.3l0-0.1l0-0.2l-0.2-0.1c-0.3-0.2-0.5-0.5-0.7-0.8
					c-0.4-0.6-0.9-1.3-2-1.3l-0.1-0.6c-0.1-0.8-0.1-1.6-0.2-2.4C221.5,143.1,221.7,142.9,221.8,142.9z"/>
				<path class="st0" d="M216.4,141.6c0.1,0.3,0.3,0.5,0.6,0.6c0.3,0.1,0.5,0.2,0.7,0.2c0.4,0,0.7-0.2,1-0.6
					c0.1-0.1,0.1-0.2,0.2-0.3h-2.5C216.4,141.5,216.4,141.5,216.4,141.6z"/>
				<path class="st0" d="M140.2,210.7v4.6c0.5-0.9,0.9-2,1.3-3.1c0.1-0.3,0.1-0.7,0-1c0-0.1,0-0.3,0-0.4l0-0.3l-0.7,0.1
					C140.5,210.6,140.3,210.6,140.2,210.7z"/>
				<path class="st0" d="M140.5,145.7c-0.2,0.9-0.1,0.2-0.2,0.8c-0.2,0.6-0.2,0.9-0.2,1.4V196c0.2,0.1,0.4,0.2,0.5,0.3
					c0.2,0.1,0.4,0.2,0.6,0.3c0.5,0.2,0.9,0.4,1.3,0.4c0.5,0,0.9-0.2,1.3-0.5c0.2-0.1,0.4-0.2,0.5-0.2c0.1,0,0.3,0,0.5,0.5
					c0.1,0.3,0.4,0.7,0.7,0.7c0.8,0.1,1.6,0.3,2.5,0.4l1,0.1l0,0.1l0.3-0.1c0.2,0,0.4-0.1,0.6-0.1c0.4-0.1,0.7-0.2,1-0.2
					c0.3,0,0.5,0,0.8-0.1c0.3,0,0.6-0.1,0.9-0.1c0.7,0,1.1,0.2,1.5,0.5c0.3,0.3,0.7,0.6,1.1,0.8c0.2,0.1,0.3,0.2,0.5,0.4l0.3,0.2
					l0-0.1h1.3c0,0,0,0.1,0,0.1c0,0.1-0.2,0.1-0.3,0.2c-0.2,0.1-0.5,0.2-0.6,0.5l-0.1,0.1l0.1,0.1c0,0.1,0.1,0.1,0.1,0.2
					c0.1,0.2,0.2,0.5,0.4,0.6c0.5,0.3,1,0.6,1.6,0.7c0.3,0,0.6-0.3,0.9-0.6c0.1-0.1,0.2-0.2,0.2-0.2c0.1-0.1,0.2-0.3,0.3-0.4
					c0.1-0.1,0.1-0.2,0.2-0.3c0.1,0,0.2,0.1,0.2,0.1c0.1,0.1,0,0.4,0,0.6c0,0.1,0,0.2,0,0.3c0,0.1,0,0.2-0.1,0.3
					c-0.6,0.8-0.3,1.6,0.1,2.3c1.7,3.1,3.3,6.3,5,9.4c0.1,0.1,0.2,0.3,0.2,0.4l0.2,0.3l0.2,0c1.1-0.2,1.8-0.8,2.2-2
					c0.6-1.7,0.5-3.4,0.5-4.9c0-0.5,0.1-0.8,0.5-1.2c1.4-1.4,2.9-2.8,4.3-4.2c0.3-0.3,0.5-0.7,0.5-1.1c0-0.4,0.1-0.5,0.5-0.7
					c0.2,0,0.3-0.2,0.4-0.3c0,0.2,0.1,0.4,0.2,0.5c0.2,0.2,0.4,0.3,0.8,0.3c0.2,0,0.4,0,0.7-0.1c0.2,0,0.3-0.1,0.4-0.2
					c0.1,0,0.1-0.1,0.2-0.1c0.1,0,0.3-0.1,0.3-0.1c0.1,0,0.1,0.2,0.2,0.4c0,0,0,0.1,0,0.2c0,0.1,0,0.1,0,0.2l0,0.2l0.4,0.2l-0.1,0.1
					c-0.1,0.2,0.1,0.3,0.1,0.4c0.2,0.2,0.4,0.3,0.6,0.5c1.1,0.9,2.1,1.7,2.1,3.2c0,0.3,0.5,0.7,0.8,0.7c0.3,0,0.7-0.2,0.9-0.4
					c0.2-0.2,0.4-0.5,0.5-0.7c0-0.1,0.1-0.1,0.1-0.2l1,3.2l0.1,0c0.3,0.1,0.6,0.3,0.6,0.5c0.1,0.2,0,0.5-0.2,0.9
					c-0.1,0.2-0.1,0.5,0,0.8c0.1,0.3,0.3,0.5,0.5,0.8l0.3,0.5l0,0c-0.1,0.2-0.2,0.4-0.3,0.7c-0.3,0.6-0.3,1.2,0,1.8
					c0.3,0.5,0.7,0.7,1.3,0.8l-0.1,0.1l0.1,0.2c0.4,0.6,0.6,1.3,0.7,2c0.1,0.5,0.2,0.9,0.3,1.4c-0.3-0.2-0.6-0.4-0.9-0.6
					c-0.7-0.6-1.5-1.1-2.2-1.7l-1.1-0.8l-0.6,0.3l0.1,0.2c0,0.1,0,0.2,0.1,0.3c0,0.2,0.1,0.5,0.2,0.7c0.6,0.9,1.2,1.8,1.8,2.7
					c0.1,0.2,0.3,0.3,0.5,0.5c0.1,0.1,0.2,0.2,0.3,0.2c0.2,0.1,0.4,0.2,0.5,0.3l0.3,0.5c1.2,1.8,2.5,3.6,3.6,5.5
					c0.5,0.8,1.2,0.9,1.7,0.9c0.2,0,0.4,0,0.6,0c0.4,0,0.6-0.5,0.8-0.9c0-0.1,0.1-0.2,0.1-0.3c0.1-0.2,0.1-0.3,0.2-0.5
					c0-0.1,0.1-0.3,0.2-0.4c0.2-0.3,0.2-0.5,0.1-0.7c-0.1-0.3-0.4-0.5-0.6-0.6c-0.6-0.3-0.9-0.5-1-1.1c-0.1-0.5-0.4-1-0.7-1.2
					c-0.5-0.4-1-0.9-1.5-1.3l1.6,0.7l0-0.4c0-1.5-0.6-2.6-1.2-3.7c-0.2-0.4-0.4-0.8-0.6-1.3l-0.1-0.2l-0.2,0.1c0,0-0.1,0-0.1,0
					l0-0.1c0-0.1,0-0.1-0.1-0.2c-0.1-0.2-0.1-0.4-0.3-0.6c-0.2-0.2-0.3-0.3-0.5-0.5c-0.2-0.2-0.4-0.3-0.5-0.5
					c-0.1-0.1-0.2-0.3-0.3-0.4c-0.4-0.5-0.8-1-0.9-1.5c-0.1-0.9-0.1-1.8,0-2.7c0-0.3,0-0.6,0.1-0.8c0-0.3,0.1-0.3,0.2-0.3
					c0,0,0.1,0,0.2,0c0.2,0.8,0.9,1.6,1.7,1.7l-0.1,0l1.7,1.7l0,0c0,0.1,0.1,0.2,0.1,0.2c0.1,0.1,0.1,0.2,0.2,0.3l0,0.1
					c0,0.3,0.1,0.7,0.7,0.7c0,0,0.1,0,0.1,0c0.4-0.1,0.8-0.2,1.1-0.4c0.2-0.2,0.4-0.3,0.5-0.5c0.2-0.2,0.4-0.5,0.7-0.6
					c0.9-0.4,1.7-1.4,1.7-2.4l0-0.2c0-0.5-0.1-1-0.2-1.5c-0.1-0.5-0.3-1.1-0.7-1.5c-0.2-0.3-0.6-0.6-0.8-0.8
					c-0.3-0.3-0.6-0.5-0.8-0.8l-0.2-0.2c-0.6-0.8-1.3-1.6-1.7-2.5c-0.1-0.1,0.3-0.6,0.5-0.8c0.1-0.2,0.3-0.4,0.4-0.6l0.2-0.4
					l-0.1-0.1c0.1,0,0.1,0,0.2,0c0.2,0,0.5-0.1,0.8-0.2c0.2-0.1,0.4-0.1,0.5-0.1c0.1,0,0.3,0,0.4,0.3c0.1,0.3,0.4,0.7,0.8,0.7
					c0.3,0,0.5-0.2,0.8-0.5c0.3-0.3,0.7-0.7,1-0.8c2.1-0.5,3.7-1.5,4.8-3.1c0.1-0.1,0.2-0.2,0.3-0.3l0.1-0.1
					c1.4-1.5,1.7-3.3,1.9-4.9l0-0.2c0.1-0.5,0.1-1-0.2-1.4c-0.2-0.2-0.4-0.3-0.8-0.4c0.7-1,0.5-1.7-0.6-2.7
					c-0.2-0.2-0.4-0.4-0.6-0.5c-0.4-0.4-0.8-0.8-1.3-1.1c-0.6-0.4-0.7-0.9-0.6-1.3c0.1-0.7,0.6-1.3,1.2-1.6c0.7-0.3,0.9-0.7,0.7-1.4
					l-0.1-0.2H202c-0.2,0-0.4,0-0.6,0c-0.2,0-0.4,0-0.6,0c-0.4,0-0.7,0-0.9,0.1c-0.3,0.1-0.5,0.4-0.7,0.8c0,0.1-0.1,0.1-0.1,0.2
					c-0.7-0.2-1.5-0.7-1.8-1.1c-0.1-0.1-0.1-0.2-0.1-0.3c0.3-1.5,1.3-2.6,2.3-2.6c0.1,0,0.1,0,0.2,0c0,0.1,0,0.3-0.1,0.5
					c-0.1,0.5-0.3,1.2,0.7,1.6l0.1,0.1l2-1.6c0,0,0,0.1,0.1,0.1l0.1,0.1c0.1,0.1,0.1,0.2,0.2,0.3c0.1,0.1,0.2,0.3,0.3,0.4
					c0.1,0.3,0.1,0.6,0.1,0.9c0,0.1,0,0.5,0,0.5l0.1,0.1c0.3,0.1,0.6,0.2,0.9,0.2c0,0,0,0,0,0c0.3,0,0.5-0.1,0.7-0.2
					c0,0.1,0.1,0.2,0.1,0.3c0.1,0.2,0.1,0.3,0.1,0.4c0,0.1,0,0.2,0,0.3c0,0.2-0.1,0.4,0,0.6c0.2,0.4,0.4,0.8,0.6,1.2
					c0.1,0.2,0.2,0.5,0.4,0.7c0.2,0.5,0.6,0.6,0.8,0.6c0.2,0,0.4-0.1,0.7-0.2c0.6-0.3,1.1-1,1.2-1.8c0.1-0.8-0.1-1.5-0.6-2
					c-0.4-0.4-0.9-0.7-1.3-1c-0.2-0.1-0.4-0.3-0.6-0.5l-0.2-0.1l-0.1,0.1c-0.4-0.7-0.3-1.2,0.2-1.9c0.7-0.8,0.5-1,0.4-1.1
					c-0.3-0.4-0.2-0.6,0-1.1c0.1-0.2,0.2-0.4,0.1-0.7l0.4-0.7l0,0c0.1,0.1,0.3,0.1,0.4,0.2c0.2,0.1,0.3,0.1,0.6,0.1
					c0.6,0,1.4-0.3,1.6-0.8c1-2.3,1.7-4.5,1.5-6.9c0-0.3,0-0.6,0-0.9c0-0.2,0-0.4,0-0.7c0-0.3,0-0.6-0.1-0.8l-0.3-0.6
					c-0.9-1.8-1.8-3.7-3.4-5.3c-0.5-0.4-0.8-0.7-1.4-0.7c-0.3,0-0.5,0.1-0.8,0.2l-0.1,0.1l-0.1,0.6l-2.1-0.7
					c0.1-0.2,0.2-0.5,0.3-0.7c0.3-0.7,0.5-1.4,0.7-2c0.3-1.5,0.6-3,0.8-4.5c0-0.3,0.1-0.4,0.5-0.5l0.8-0.3c1.2-0.4,2.4-0.8,3.5-1.3
					c0.7-0.4,1.4-0.4,1.9-0.4c0.1,0,0.2,0,0.2,0l0.2,1.5l0.3-0.1c0.5-0.2,0.8-0.6,1.1-0.9c0.4-0.4,0.7-0.8,1.3-0.8
					c0.1,0,0.2,0,0.3,0l0.2,0l0.1-0.2c0.1-0.4,0.1-0.7,0-1c-0.2-0.4-0.6-0.4-1-0.5c-0.2,0-0.3-0.1-0.5-0.1c0.2-0.4,0.3-0.9,0.4-1.3
					c0.2-0.7,0.3-1.3,0.7-1.9h-68.5c-0.9,0-2.2,0.3-2.5,0.5s0.2-0.1-0.7,0.4C142.4,142.8,140.8,144.7,140.5,145.7z M206.1,172.9
					C206.1,172.9,206.1,172.9,206.1,172.9C206.1,172.9,206,172.9,206.1,172.9C206,172.9,206.1,172.9,206.1,172.9z M186.1,200.7
					c0.1,0,0.2-0.1,0.3-0.1c0,0.1,0,0.1,0,0.2C186.4,200.7,186.3,200.7,186.1,200.7C186.2,200.7,186.2,200.7,186.1,200.7
					C186.1,200.7,186.1,200.7,186.1,200.7z M181.5,192.7L181.5,192.7C181.5,192.7,181.5,192.7,181.5,192.7
					C181.5,192.7,181.5,192.7,181.5,192.7z M178.7,199.2C178.7,199.2,178.8,199.2,178.7,199.2c0.1,0.1,0.1,0.1,0.1,0.2
					C178.8,199.4,178.7,199.3,178.7,199.2L178.7,199.2z M176.8,193.5C176.8,193.6,176.8,193.6,176.8,193.5L176.8,193.5
					C176.8,193.6,176.8,193.5,176.8,193.5z M174.3,193.9L174.3,193.9c0.1,0.1,0.1,0.1,0.1,0.2C174.3,194.1,174.3,194,174.3,193.9
					c-0.1,0-0.1,0-0.1,0C174.2,193.9,174.3,193.9,174.3,193.9z M173.5,193.9L173.5,193.9C173.5,193.9,173.5,193.9,173.5,193.9
					C173.5,193.9,173.5,193.9,173.5,193.9z M167.1,169.7c0,0.1-0.1,0.2-0.1,0.3c-0.1,0-0.1-0.1-0.2-0.1
					C166.9,169.8,167,169.7,167.1,169.7z M154.4,181.5c0.1,0,0.1,0.1,0.2,0.1l-0.3,0.1C154.4,181.6,154.4,181.6,154.4,181.5z
					 M151.6,185C151.7,185,151.7,185,151.6,185C151.7,185.1,151.6,185.1,151.6,185C151.6,185,151.6,185,151.6,185z"/>
				<path class="st0" d="M197.7,224.1c0.1,0.3,0.5,0.4,0.7,0.5c0.3,0.1,0.7,0.2,1,0.2c0.6,0.1,1.2,0.2,1.8,0.4
					c0.2,0.1,0.4,0.3,0.6,0.4c0.1,0.1,0.1,0.1,0.2,0.2l-0.2,0.6l0.5-0.2c0.1,0,0.2-0.1,0.3-0.1c0.3-0.1,0.6-0.2,0.8-0.4l0.2-0.2
					c0.7-0.8,1.5-1.6,1.3-2.9c0-0.2,0.1-0.4,0.2-0.6c0.1-0.2,0.2-0.4,0.3-0.6c0.1-0.3,0.2-0.4,0.6-0.4c0.1,0,0.2,0,0.4,0l0.5,0
					l-0.2-0.4c-0.1-0.2-0.2-0.4-0.3-0.6c-0.2-0.4-0.4-0.8-0.6-1.1c-0.1-0.4-0.2-0.8-0.3-1.2c0-0.2-0.1-0.4-0.1-0.6l0,0
					c0.6-0.2,1.2-0.5,1.7-1.1l0.2-0.2l-3.1-2.3l-0.1,0.3c-0.1,0.2-0.2,0.3-0.3,0.5c-0.2,0.3-0.5,0.7-0.5,1.2l-0.2,0l-1,1.2l0.1,0.3
					c-0.3,0-0.6,0.1-0.8,0.2c-0.3,0.1-0.6,0.3-0.8,0.5c-0.2,0.1-0.3,0.2-0.5,0.3c-0.6,0.3-1.3,0.8-1.1,1.7h-1.4l0.1,0.1c0,0,0,0,0,0
					c-0.1,0-0.2-0.1-0.3-0.1l-0.2-0.1l-0.4,0.4l0.3,0.9C197.1,222.1,197.4,223.1,197.7,224.1z"/>
				<path class="st0" d="M227.1,224c-0.7-0.5-1.1-0.7-1.6-0.7c-0.5,0-0.9,0.3-1.8,0.8l-0.1,0.1c-0.1,0-0.1,0.1-0.2,0.1
					c-0.1,0-0.2,0.1-0.3,0.1c-0.2,0.1-0.4,0.1-0.6,0.1c0,0-0.1,0-0.1,0c-0.5-0.1-0.7-0.4-0.7-0.9c0-0.8,0-1.3-0.3-1.6
					c-0.2-0.2-0.4-0.2-0.7-0.2c-0.3,0-0.7,0.1-1.3,0.2c-0.3,0.1-0.6,0.2-0.8,0.4c-0.1,0.1-0.3,0.2-0.5,0.3l-0.4,0.2l0.3,0.2
					c0.1,0.1,0.2,0.2,0.3,0.3c0.2,0.2,0.4,0.4,0.7,0.5c0.2,0.1,0.5,0.1,0.8,0.2c-0.7,0.8-0.8,1-0.5,1.6c0.1,0.2,0.2,0.4,0.3,0.5
					c0.1,0.1,0.1,0.1,0.1,0.2l0.2,0.3l0.2-0.3c0-0.1,0.1-0.2,0.1-0.2c0.1-0.2,0.2-0.4,0.3-0.6c0-0.1,0.1-0.1,0.1-0.2
					c0.1-0.3,0.1-0.3,0.3-0.3c0,0,0.1,0,0.1,0c0,1.2,1,1.9,1.8,2.4c0.2,0.1,0.4,0.3,0.6,0.5c0,0,0,0,0.1,0.1
					C225.4,227.2,226.6,225.7,227.1,224z"/>
				<path class="st0" d="M210.8,182.9l0.1,0.2c0.3,0.4,0.6,0.6,1,0.6c0.2,0,0.5-0.1,0.8-0.3c0.2-0.1,0.3-0.2,0.5-0.3
					c0.1-0.1,0.3-0.2,0.4-0.3c0.3-0.2,0.6-0.3,0.8-0.3c0.3,0,0.5,0.1,0.9,0.5c0.2,0.2,0.5,0.4,0.8,0.4l0.1,0
					c0.3-0.1,0.7-0.4,0.8-0.7c0.1-0.3,0.2-0.4,0.6-0.4h0c0.7,0,1.3-0.3,1.7-0.9c0.4-0.5,0.5-1.1,0.4-1.7c-0.1-0.2-0.1-0.5-0.2-0.7
					c-0.1-0.4-0.2-0.8-0.4-1.3c-0.2-0.7-0.2-1,0.3-1.3l0.3-0.1l-0.6-0.8c-0.3-0.5-0.7-0.9-1-1.4c-0.1-0.2-0.4-0.3-0.7-0.3
					c0,0,0,0,0,0c-0.4,0.1-0.8,0.4-1,0.9c-0.2,0.5-0.3,0.9-0.1,1.2c0.6,1.2,0.5,2-0.4,2.9l-1-0.3l-0.2,2.4c-0.2-0.2-0.5-0.2-0.7-0.2
					c-0.4,0-0.8,0.2-1.3,0.5c-0.4,0.3-0.8,0.7-1.2,1.1c-0.2,0.2-0.3,0.3-0.5,0.5L210.8,182.9z"/>
				<path class="st0" d="M208.6,221.5l0.1-0.1c0.2-0.2,0.5-0.2,0.8-0.2c0.3,0,0.7,0.1,1,0.2l0.1,0c0.2,0.1,0.5,0.1,0.7,0.1
					c0.3,0,0.6,0,0.8-0.1c0.4-0.2,0.6-0.4,0.9-0.7c0.1-0.1,0.2-0.2,0.4-0.3l0.2-0.2l-0.9-0.9c0,0-0.4,0.3-0.5,0.3
					c-0.2,0.1-0.4,0.2-0.5,0.4c-0.3,0.2-0.5,0.3-0.8,0.3c-0.2,0-0.5-0.1-0.8-0.2c-0.1,0-0.1-0.1-0.2-0.1c-0.2-0.1-0.4-0.2-0.6-0.2
					l-0.2,0c-0.6,0-0.9,0.1-1,0.3c-0.5,0.5-0.8,1.2-1.1,1.8c-0.3,0.8-0.5,1.6-0.6,2.3l-0.1,0.5c-0.1,0.2,0,0.6,0.2,0.8
					c0.4,0.3,0.4,0.6,0.2,1.1c-0.1,0.2-0.1,0.3-0.2,0.5l-0.1,0.2l-0.1,0.3h1.7l0.4-2.7c0.1,0.2,0.1,0.4,0.1,0.6
					c0.1,0.4,0.2,0.9,0.3,1.3c0.1,0.2,0.2,0.4,0.4,0.6c0.1,0.1,0.2,0.2,0.3,0.3l0.3,0.4l0.2-0.4c0.1-0.2,0.2-0.4,0.3-0.6
					c0.2-0.4,0.4-0.7,0.3-1c-0.1-0.7-0.3-1.3-0.6-2c-0.1-0.2-0.1-0.4-0.2-0.6l1.3-0.9l-0.1-0.6l-0.2,0c-0.1,0-0.1,0-0.2,0
					c-0.1,0-0.2,0-0.3,0c-0.1,0-0.2,0-0.2,0c-0.3,0.1-0.6,0.3-0.8,0.4l-0.1,0.1c-0.1,0.1-0.3,0.1-0.4,0.1c-0.1,0-0.3-0.1-0.4-0.4
					c0-0.1-0.1-0.1-0.1-0.2c-0.1-0.1-0.1-0.1-0.1-0.2C208.4,221.7,208.5,221.6,208.6,221.5z"/>
				<path class="st0" d="M214.4,160.8c-0.8-1-1.6-2-2.3-3l-1.6-2.1c-0.1-0.1-0.2-0.3-0.4-0.4l-0.6-0.7l-0.1,0.5
					c-0.2,1.3,0,2.3,0.7,3.3l0.4,0.5c0.8,1,1.6,2,1.8,3.2c0.3,1.6,1.1,3,2,4.3l0.1,0.2c0.2,0.3,0.6,0.6,1,0.6l0,0
					c0.4,0,0.8-0.4,0.9-0.8c0.1-0.3,0-0.8-0.2-1.1c-0.2-0.2-0.5-0.5-0.7-0.7c-0.4-0.3-0.7-0.7-0.9-1c-0.2-0.3-0.2-0.9-0.1-1.1
					C214.9,162,214.9,161.5,214.4,160.8z"/>
				<path class="st0" d="M218.9,168.4c-0.1,0.1-0.3,0.2-0.4,0.3c-0.3,0.2-0.5,0.4-0.8,0.4c-0.1,0-0.3,0-0.4-0.1
					c-0.4-0.3-0.8-0.5-1.1-0.8c-0.2-0.1-0.7-0.5-0.7-0.5l-0.1,0.1c-0.3,0.2-0.4,0.4-0.5,0.6c-0.1,0.4,0.2,0.8,0.4,1.1
					c0.4,0.6,0.4,1-0.2,1.5c-0.3,0.3-0.6,0.6-0.6,1c0,0.3,0.1,0.5,0.4,0.8c0.2,0.2,0.5,0.5,0.6,0.8c0.2,0.4,0.5,0.5,0.7,0.5
					c0.3,0,0.6-0.2,0.8-0.3c0.2-0.1,0.3-0.3,0.3-0.5c0-0.3-0.3-0.6-0.5-0.7c-0.1-0.1-0.2-0.1-0.3-0.2c0.2-0.3,0.3-0.4,0.4-0.4
					c0.2,0,0.4,0.1,0.7,0.3l0.4,0.2l0-0.5c-0.1-0.8,0.5-1.1,1.3-1.5c0.2-0.1,0.4-0.2,0.6-0.3l0.2-0.1l-1.2-1.8L218.9,168.4z"/>
				<path class="st0" d="M208.8,202.2c-0.3-0.5-0.7-0.8-1.4-0.8c-0.1,0-0.2,0-0.3,0c-0.7,0.1-1.1,0.5-1.2,1.2
					c-0.2,1.3,0.4,2.3,1,3.2c0.1,0.2,0.3,0.4,0.4,0.7c0.1,0.1,0.2,0.2,0.3,0.2l-0.5,0.4l1.2,1.2l0.2-0.2l0.1-0.1
					c0.2-0.2,0.3-0.3,0.2-0.5c-0.2-0.2-0.3-0.4-0.5-0.6l-0.1-0.1c0,0,0.1,0,0.1,0c0.2-0.1,0.5-0.2,0.7-0.2c0.2,0,0.4,0.1,0.5,0.5
					c0.1,0.4,0.9,0.4,0.9,0.4l0.1,0c0.3,0,0.5-0.5,0.5-0.6c0.1-0.2,0-0.3-0.1-0.4c-0.1-0.1-0.2-0.2-0.2-0.3
					c-0.3-0.3-0.7-0.7-1.1-0.8c-0.7-0.1-0.9-0.3-1.2-0.8C208.9,204.1,209.4,203.3,208.8,202.2z"/>
				<path class="st0" d="M194.3,227.7c-0.4,0-1.1,0.3-1.3,0.7c0,0.1-0.1,0.2-0.1,0.2h6.3c-1.6-0.4-3.3-0.7-4.9-1L194.3,227.7z"/>
				<path class="st0" d="M214,213.6c0-0.2,0-0.4,0-0.6c0-0.1-0.1-0.3-0.1-0.4c0-0.2-0.1-0.3-0.1-0.4c0.1-0.9-0.3-1.4-1.3-1.7
					l-0.3-0.1l0,0.3c0,0.8-0.4,1.2-1.3,1.4c-0.9,0.1-1.6,1-1.6,1.8l0,0.3l1.6-0.6c0.7,1.1,1.2,1.7,1.7,1.7c0.4,0,0.7-0.3,0.9-0.6
					l0.1-0.2l-0.5-0.5l0.9,0.1L214,213.6z"/>
				<path class="st0" d="M169.2,215.4c0.2,0.3,0.7,0.3,0.9,0.3c0.1,0,0.2,0,0.3,0l0.1,0c0.3-0.1,0.7-0.2,0.9-0.6
					c0.1-0.2,0.1-0.4,0-0.7c-0.1-0.2-0.1-0.4-0.2-0.7c0-0.1,0-0.1,0-0.2l0.3-0.2l-0.5-0.5c-0.2-0.2-0.4-0.5-0.7-0.7
					c-0.2-0.1-0.4-0.2-0.6-0.2c-0.1,0-0.1,0-0.2,0c-0.3,0.1-0.4,0.5-0.4,0.7c0,0.1,0,0.3,0,0.4c0,0.3,0,0.5-0.2,0.8
					C168.6,214.4,169.2,215.4,169.2,215.4z"/>
				<path class="st0" d="M210.6,184.4c-0.2,0.2-0.1,0.7-0.1,0.9c0.1,0.2,0.2,0.2,0.2,0.2c0.4,0.1,0.4,0.3,0.4,0.6
					c0,0.1,0,0.3,0.1,0.4c0.1,0.2,0.2,0.4,0.3,0.6l0.3,0.6l0.2-0.1c1-0.5,1.2-1.3,1.1-1.6c0-0.7-0.6-1.4-1.5-1.8
					c-0.1,0-0.2-0.1-0.3-0.1C211.3,184.1,210.8,184.1,210.6,184.4z"/>
				<path class="st0" d="M204.2,195.7c0,0.8,0.5,1.5,1.4,2l0.4,0.2v-4.3l-0.4,0.2C204.7,194.3,204.2,195,204.2,195.7z"/>
				<path class="st0" d="M204.4,212.8l0.1,0c0.9-0.1,1.4-0.7,1.9-1.3c0.3-0.4,0.6-0.7,1-0.9l0.2-0.1l-1.2-1.6l-2.6,3.6L204.4,212.8z
					"/>
				<path class="st0" d="M209.2,208.2l-0.2,0l-0.1,0.1c-0.5,0.9-0.1,1.6,0.3,2.2c0.2,0.3,0.4,0.6,0.4,1c0,0.4,0.8,0.4,0.8,0.4l0.2,0
					l0.1-0.1c0.1-0.2,0.2-0.4,0.3-0.6l0.1-0.1c1.3-0.6,0.9-1.5,0.8-1.9c-0.1-0.2-0.3-0.3-0.5-0.4c-0.1,0-0.1-0.1-0.2-0.1l-0.1-0.1
					l-0.5,0.4l0.1,0.9c0-0.1-0.1-0.2-0.1-0.4C210.5,208.7,210,208.3,209.2,208.2z"/>
				<path class="st0" d="M197.4,200.8l-0.1-0.1c-0.3-0.2-0.7-0.3-1-0.3c-0.4,0-0.8,0.1-1.1,0.4c-0.3,0.2-0.4,0.5-0.4,0.7
					c0,0.1,0,0.3,0.3,0.5c0.6,0.5,0.9,0.5,1,0.5l0.1,0l0,0c0.8-0.2,1.3-0.9,1.3-1.7L197.4,200.8z"/>
				<path class="st0" d="M214.7,221.6c0.2,0.1,0.3,0.2,0.5,0.3l0.4,0.3l0.1-0.2c0.1-0.1,0.1-0.2,0.2-0.3c0.2-0.2,0.4-0.5,0.5-0.7
					c0.1-0.3-0.1-0.6-0.4-0.8c-0.2-0.2-0.4-0.4-0.7-0.6l-0.5-0.4l-0.2,0.2C214.2,219.9,213.6,220.8,214.7,221.6z"/>
				<path class="st0" d="M215.9,225.2c0.2,0,0.4-0.1,0.5-0.2c0.2-0.1,0.3-0.2,0.5-0.2c0.1,0,0.2,0,0.4,0.2c0.1,0.1,0.3,0.2,0.5,0.2
					c0.1,0,0.2,0,0.3,0l0.6,0.1l-0.3-0.5c-0.5-0.9-1-1.2-1.6-1.2c-0.3,0-0.7,0.1-1.1,0.2l-0.1,0c-0.2,0.1-0.3,0.3-0.4,0.5
					c0,0.1,0,0.1-0.1,0.2l-0.2,0.3l0.5,0.1C215.5,225.1,215.7,225.2,215.9,225.2z"/>
				<path class="st0" d="M214.7,183.1l-0.1-0.2l-0.2,0c-0.7,0.1-1.2,0.4-1.4,0.9c-0.2,0.4-0.1,0.9,0.2,1.4l0.1,0.2l0.2-0.1
					C214.9,184.5,215.2,184.2,214.7,183.1z"/>
				<path class="st0" d="M211.5,208.7c0.2,0.3,0.4,0.8,1,0.9l0.3,0.1l0-0.3c0-0.8,0-1.3-0.3-1.6c-0.1-0.2-0.4-0.2-0.6-0.2
					c-0.2,0-0.5,0.1-0.8,0.2l-0.6,0.2l0.5,0.3C211.3,208.2,211.4,208.4,211.5,208.7z"/>
				<path class="st0" d="M220.9,166.8c-0.1,0-0.2,0-0.3,0c-0.1,0-0.3,0-0.4,0.2c-0.1,0.1-0.2,0.2-0.2,0.3c-0.3,0.3-0.8,0.8-0.4,1.6
					l0.2,0.3l1.7-1.7l-0.1-0.6h-0.2C221,166.8,221,166.8,220.9,166.8z"/>
				<path class="st0" d="M222.6,160.7c0,0.2,0.2,0.4,0.3,0.6c0,0.1,0.1,0.1,0.1,0.2l0.2,0.5l1-2l-0.3-0.1c-0.1,0-0.3-0.1-0.4-0.1
					l1.2-1.5l-0.4-0.1c-0.3-0.1-0.4-0.1-0.6-0.1c-0.3,0-0.4,0.1-0.6,0.2c-0.2,0.2-0.2,0.6-0.1,1.4l0,0.1c-0.2,0-0.3,0.1-0.4,0.2
					C222.6,160.2,222.6,160.5,222.6,160.7z"/>
				<path class="st0" d="M144.4,209.9l-0.3-0.2c-0.3-0.2-0.5-0.3-0.8-0.3c-0.2,0-0.4,0-0.6,0.1c-0.2,0-0.4,0.1-0.6,0.1
					c-0.1,0-0.1,0-0.2,0l-0.8-0.1l1.5,1.5L144.4,209.9z"/>
				<path class="st0" d="M222.4,164.8c-0.3,0.1-0.8,0.2-1,0.6c-0.2,0.3-0.1,0.7,0,1.3l0.2,0.5l1.4-2.1l-0.5-0.3L222.4,164.8z"/>
				<polygon class="st0" points="145.9,224.9 145.7,224.7 144.4,225.5 146,226.4 145.2,227.1 146.7,228.4 146.7,226.7 146.3,226.2 
					146.2,226.3 146.4,226 				"/>
				<path class="st0" d="M226.6,149.3l0.8,0.6v-0.8c-0.1,0-0.2,0-0.3,0.1L226.6,149.3z"/>
				<polygon class="st0" points="163,218.4 162.1,217.8 161.5,218 161.8,219.4 162.5,219.4 				"/>
			</g>
			<path class="st1" d="M215.2,228.6h-62.8c-6.7,0-12.2-5.5-12.2-12.2v-62.8c0-6.7,5.5-12.2,12.2-12.2h62.8
				c6.7,0,12.2,5.5,12.2,12.2v62.8C227.4,223.1,221.9,228.6,215.2,228.6z"/>
			<g>
				<path class="st0" d="M221,43.1h-74.4c-3.5,0-6.4,2.9-6.4,6.4v74.4c0,3.5,2.9,6.4,6.4,6.4h51.6c-2.7-4.4-6.4-7.8-10.5-10.8
					c-0.3-0.2-0.7-0.3-0.7-0.8c-1.7-0.6-2.8-1.9-3.8-3.3c-1.1-1.6-1.9-3.4-2.2-5.4c-0.1-0.9-0.5-1.3-1.5-1.2c-1.1,0.1-2.3,0-3.4,0
					c-0.8,0-0.8-0.2-0.5-0.9c0.7-1.6,1.4-3.2,2.2-5.1c-2.2,1.1-4.2,1.6-6.4,1.9c-2,0.2-3.9,0.1-5.7-0.8c-2.5-1.2-2.2-3.9-0.2-5.5
					c1.5-1.3,3.3-1.5,5.3-1.3c1.2,0.1,2.3,0.3,3.8,0.6c-1.8-1.6-3.4-3-4.8-4.6c-3.8-4.3-6.2-9.3-7.4-14.8c-0.6-2.9-0.9-5.8-0.6-8.8
					c0.8-9,5.9-16,15.4-18.5c2.5-0.7,5.1-1.1,7.8-0.9c6.6,0.5,12.4,2.6,16.9,7.7c2.5,2.9,4.1,6.2,4.5,10.1c0.9,9-1.9,16.9-7.3,24
					c-1.2,1.6-2.6,3.1-4.5,4.5c0.8,0,1.3,0.1,1.8,0c1.3-0.3,2.5,0,3.7,0.4c1.7,0.5,2.7,2.3,2.5,4.1c-0.2,2-1.4,3.2-3.4,3.5
					c-2.4,0.4-4.6-0.4-6.9-1.1c-1-0.3-2-0.7-3.3-1.2c0.8,1.6,1.4,2.8,2,4.1c0.4,0.9,1.4,1.9,1,2.6c-0.3,0.6-1.8,0.1-2.7,0.2
					c-1.7,0-3.4,0.1-5,0c-1,0-1.2,0.4-1,1.2c0.9,3.4,2.7,6.1,5.6,8.1c0.3,0.2,0.5,0.4,0.7,0.6c3.7,2.4,6.9,5.3,9.6,8.7
					c0.7,0.9,1.1,2,1.2,2.9H221c3.5,0,6.4-2.9,6.4-6.4V49.5C227.4,46,224.5,43.1,221,43.1z"/>
				<path class="st0" d="M178.7,106.1c-0.2,0.4-0.3,0.7,0.4,0.7c3.2,0,6.5,0,9.9,0c-0.7-1.4-1.4-2.7-2-4c-0.6-1.3-1.1-2.7-3.2-3
					c1-0.4,1.6-0.8,2.2-1c3.7-1.4,6.9-3.7,9.6-6.6c5.3-5.6,8.1-12.4,8.7-20c0.5-5.9-1.3-11-5.9-14.8c-6.2-5.2-13.3-6.4-20.9-4.4
					c-6.4,1.7-10.9,5.7-12.8,12.1c-2,6.8-0.8,13.5,2.1,19.8c2.9,6.3,7.8,10.8,13.7,14.2c0.8,0.4,0.9,0.8,0.5,1.6
					C180.2,102.4,179.5,104.3,178.7,106.1z"/>
				<path class="st0" d="M166.9,100c-0.5,0.4-0.9,0.8-0.8,1.5c0.1,0.6,0.8,0.8,1.3,0.9c3.3,0.7,6.4,0.1,9.6-1.6
					c-2.1-0.9-4.1-1.4-6.2-1.6C169.4,99,168,99.1,166.9,100z"/>
				<path class="st0" d="M200.3,100.5c0.1-1.4-0.5-2.1-2-2.2c-3-0.2-5.7,0.6-8.7,1.6c2.9,1.1,5.6,2.3,8.6,2.3
					C199.6,102.2,200.3,101.6,200.3,100.5z"/>
			</g>
			<g>
				<path class="st0" d="M85,199.6c-1.3,0-2.3,0.3-3.1,1c-1.1,1-1.1,2.3,0.1,3.3c1.5,1.3,4,1.2,5.5,0c1.1-0.9,1.1-2.2,0.1-3.2
					C86.8,199.9,85.8,199.6,85,199.6z"/>
				<path class="st0" d="M75.4,204.6c-0.5-0.3-1-0.5-1.6-0.5c-1.6,0-2.9,1-2.9,2.3c0,1.2,1.1,2,3,2c0.2,0,0.6,0,0.9-0.1
					c0.8-0.3,1.5-0.6,1.6-1.6C76.6,205.7,76.2,205.1,75.4,204.6z"/>
				<path class="st0" d="M64.5,207.9c-0.3-0.1-0.6-0.1-0.8,0c-0.8,0-1.8-0.1-1.8,0.9c0,1.1,1.1,0.9,1.6,1c0.5,0,0.7,0,1,0
					c0.6-0.1,1.2-0.2,1.2-0.9C65.7,208.1,65,208.1,64.5,207.9z"/>
				<path class="st0" d="M54.4,210.1c-0.5,0-1.2,0-1.2,0.7c0,0.9,0.7,0.7,1.2,0.8c0.6-0.1,1.4,0,1.5-0.7
					C55.9,210,55,210.1,54.4,210.1z"/>
				<path class="st0" d="M67.7,192.6c1,0,1.6,0.4,2.2,1.1c1.4,1.7,3.1,2.9,5.3,2.8c1.8,0,3.6-0.4,5.2-1.2c1.6-0.8,3.2-1.9,4.6-3.1
					c0.5-0.4,0.9-0.5,1.5-0.2c1.4,0.8,2.9,1.5,4.4,2.1c4.1,1.6,8.3,3.2,12.9,2.7c6.1-0.7,11.2-5.8,11.8-11.9c0.1-1.5,0-3-1-4.2
					c-0.5-0.5-0.4-0.9,0.1-1.3c0.2-0.2,0.4-0.4,0.6-0.6c2.8-2.8,3-6,0.6-9.2c-1.1-1.4-2.5-2.5-3.9-3.6c-2.2-1.7-4.4-3.2-6.9-4.3
					c-3.6-1.6-7.3-2.2-11.1-0.7c-2.3,0.9-4.1,2.4-5.7,4.5c-0.2-0.6-0.3-1.1-0.5-1.5c-1-3-3.1-3.8-5.8-2.3c-1.1,0.6-2,1.4-3,2.2
					c-0.3-0.8-0.6-1.5-1-2.3c-1.1-2.1-2.7-3.7-5.2-3.8c-2.4-0.1-4.7,0.5-6.7,1.9c-2.7,1.9-3.2,4.6-1.5,7.4c0.2,0.3,0.4,0.7,0.6,1
					c-0.9,0.5-1.8,0.9-2.7,1.4c-1.4,0.8-2.7,1.7-3.7,3c-1.2,1.6-1.1,2.9,0.4,4.3c0.6,0.6,1.4,1.1,2.2,1.5c1.3,0.7,2.7,1.2,4.2,1.8
					c-0.7,1.2-1.5,2.3-2.1,3.6c-0.9,2-1.4,4.1-0.5,6.2c-0.7,0-1.4,0.1-2,0.1c0.7,0,1.4-0.1,2-0.1C64.2,191.7,65.7,192.6,67.7,192.6z
					"/>
				<path class="st0" d="M122.4,141.4H48c-3.5,0-6.4,2.9-6.4,6.4v74.4c0,3.5,2.9,6.4,6.4,6.4h74.4c3.5,0,6.4-2.9,6.4-6.4v-74.4
					C128.8,144.3,125.9,141.4,122.4,141.4z M57.6,211.8c-0.6,1.2-2.5,1.8-4.3,1.4c-1.7-0.4-2.5-2.4-1.5-3.9c0.7-1,1.7-1.1,2.7-1.1
					C57,208.3,58.5,210,57.6,211.8z M66,211.2c-0.7,0.3-1.5,0.5-2.3,0.5c-0.9,0-1.8-0.2-2.6-0.7c-1.7-1.1-1.6-3.4,0.1-4.4
					c1.6-0.9,3.3-0.8,4.9-0.1c1,0.5,1.5,1.3,1.4,2.4C67.5,210,66.9,210.8,66,211.2z M78.2,207.3c-0.4,1.5-1.9,2.7-3.8,2.9
					c-0.2,0-0.5,0-0.7,0c0,0,0,0,0,0.1c-0.5-0.1-0.9-0.1-1.4-0.2c-2.2-0.5-3.4-2-3.3-3.9c0.1-1.9,1.9-3.6,3.9-3.8
					c1.4-0.1,2.7,0.1,3.8,1C78,204.3,78.6,205.9,78.2,207.3z M88.2,205.6c-1.1,0.7-2.2,1.1-3.5,1c-1.3,0-2.4-0.3-3.4-1
					c-2.7-1.9-2.6-5.4,0.3-7.1c2.3-1.3,5.3-1,7.1,0.7C90.7,201.2,90.5,204.1,88.2,205.6z M117.1,181c1,1.6,0.9,3.3,0.7,5.1
					c-0.7,6.8-6.5,12.1-13.3,12.8c-6.3,0.6-11.9-1.2-17.3-3.9c-0.9-0.4-1.4-0.4-2.2,0.2c-2.5,1.9-5.4,3.2-8.5,3.5
					c-3.1,0.3-5.8-0.8-7.8-3.3c-0.5-0.6-1.1-0.9-1.9-0.9c-2.7,0-5.4-2.1-5.8-4.4c-1.2-2.4-0.6-4.7,0.1-7c0.2-0.8,1-1.5,0.7-2.2
					c-0.3-0.7-1.3-0.6-2-1.1c-0.8-0.5-1.6-1-2.4-1.6c-2.5-1.9-2.6-4.7-0.4-7.1c1.3-1.5,2.9-2.7,4.6-3.8c0.4-0.3,0.8-0.5,0.5-1.2
					c-1.4-3.4-0.9-5.6,2-8.1c3.1-2.7,9-3.8,12.8-1.1c1,0.7,1.9,1.6,2.6,2.6c0.5,0.8,0.8,0.7,1.5,0.3c1-0.7,2.2-1.2,3.4-1.5
					c2.2-0.5,3.9,0.2,4.8,2.3c0.3,0.7,0.5,0.7,1.1,0.2c3.2-2.9,6.9-3.7,11-2.7c4,1,7.6,2.9,10.8,5.5c3.3,1.4,7.9,5.6,7.8,9.5
					c0,2.4-1,4.3-2.6,5.9C116.8,179.9,116.7,180.3,117.1,181z"/>
			</g>
			<g>
				<path class="st0" d="M85.3,65.4c-8.9,0-16.1,7.1-16.4,15.9c0,0,0,0.6,0,0.9c0.7,6.7,4,11.6,10.1,14.4c0.6,0.3,0.8,0.6,0.9,1.2
					c0.3,2.5,0.7,5,1,7.5c0.1,0.6,0.3,0.9,1,0.8c0.6,0,1.3,0,1.9,0c0.6,0,0.8-0.2,0.8-0.8c0-2.3,0.1-4.6-0.1-6.8
					c-0.2-2,0.3-3.5,2.1-4.6c0.1-0.1,0.2-0.2,0.3-0.4c-2.4-0.7-4.8-1.4-7.3-2.2c2.3-1.1,4.3-2,6.5-3.1c-2.5-0.8-4.8-1.6-7.2-2.4
					c0.7-0.7,1.4-1.3,2-1.9c0.8-0.9,1.9-1.6,2.5-2.6c1,0,2,0,3,0c-0.8,1.2-2,2.1-3,3.1c-0.3,0.4-0.4,0.6,0.2,0.7
					c0.2,0,0.4,0.1,0.6,0.2c2.5,0.8,4.9,1.5,7.7,2.3c-2.4,1.1-4.4,2.1-6.7,3.2c1.9,0.7,3.6,1.4,5.4,2.1c-1.2,1-2.2,1.9-3.2,2.8
					c-0.4,0.3-0.6,0.7-0.6,1.3c0,2.3,0,4.6,0,6.8c0,2.2,0,2.2,2.3,2.3c1.1,0,1.3-0.4,1.4-1.3c0.3-2.5,0.7-4.9,0.9-7.4
					c0.1-0.5,0.3-0.8,0.8-1c2-0.8,3.8-2,5.2-3.6c2.8-3.1,4.1-6.9,4.5-11C101.8,72.8,94.4,65.4,85.3,65.4z"/>
				<path class="st0" d="M122.4,43.1H48c-3.5,0-6.4,2.9-6.4,6.4v74.4c0,3.5,2.9,6.4,6.4,6.4h74.4c3.5,0,6.4-2.9,6.4-6.4V49.5
					C128.8,46,125.9,43.1,122.4,43.1z M84,49.5h2.8v7.4H84V49.5z M62.9,58.2l5.2,5.2l-2,2l-5.2-5.2L62.9,58.2z M59.6,84.1h-7.4v-2.8
					h7.4V84.1z M62.9,107.2l-2-2l5.2-5.2l2,2L62.9,107.2z M87,121.6c-0.5-0.1-1,0-1.5,0c-0.4,0-0.7,0-1.1,0c-0.9,0.1-1.1-0.3-1-1
					c0-0.6,0.2-0.7,0.7-0.7c1,0,1.9,0.1,2.9,0c0.8-0.1,0.7,0.4,0.8,0.9C87.8,121.3,87.7,121.7,87,121.6z M91.2,118.3
					c-1.9,0-3.7,0-5.6,0c0,0,0,0,0,0c-1.8,0-3.7,0-5.5,0c-0.6,0-0.8-0.2-0.7-0.7c0-0.5-0.2-1,0.7-1c3.7,0,7.5,0,11.2,0
					c0.7,0,0.7,0.4,0.7,0.9C92,118.1,91.9,118.3,91.2,118.3z M91.2,115.1c-1.8,0-3.7,0-5.5,0c-1.8,0-3.6,0-5.4,0
					c-0.7,0-0.8-0.3-0.8-0.9c0-0.6,0-1,0.8-0.9c3.7,0,7.3,0,11,0c0.8,0,0.8,0.4,0.8,1C92.1,114.9,91.8,115.1,91.2,115.1z
					 M79.4,110.7c0-0.6,0.1-0.8,0.8-0.8c3.7,0,7.4,0,11.1,0c0.8,0,0.8,0.4,0.8,0.9c0,0.6-0.1,0.8-0.8,0.8c-1.9,0-3.7,0-5.6,0
					c-1.9,0-3.7,0-5.6,0C79.4,111.6,79.4,111.2,79.4,110.7z M94.8,97.6c-1.2,0.6-1.6,1.3-1.7,2.6c-0.2,2.3-0.7,4.6-1,7
					c-0.1,0.6-0.3,0.8-0.9,0.7c-3.9,0-5.3,0-5.8,0c-0.7,0-2.2,0-5.5,0.1c-0.7,0-0.8-0.2-0.9-0.9c-0.3-2.7-0.7-5.4-1.1-8.1
					c-0.1-0.4-0.2-0.7-0.6-0.9c-6.2-2.6-9.2-7.5-10.5-13.8c-0.2-0.8-0.3-1.6-0.4-2.5h0c0,0,0-0.1,0-0.1c0-0.1,0-0.4,0-0.4
					c0.3-10.2,8.6-18.5,18.9-18.5c10.5,0,18.9,8.5,18.9,19C103.9,88.7,101.1,94.2,94.8,97.6z M107.9,107.2l-5.2-5.2l2-2l5.2,5.2
					L107.9,107.2z M104.6,65.4l-2-2l5.2-5.2l2,2L104.6,65.4z M118.6,84.1h-7.4v-2.8h7.4V84.1z"/>
			</g>
			<path class="st2" d="M85.4,101.1"/>
			<path class="st2" d="M85.4,108.5"/>
		</g>
	</g>
	<g>
		<g>
			<path class="st0" d="M339.8,165.8h-9.6l-3.5-10.5h-17.8l-3.5,10.5h-9.6l16.4-50.7h11.2L339.8,165.8z M311.7,146.4h12l-6-19.9
				L311.7,146.4z"/>
			<path class="st0" d="M343.5,165.8v-9h21.7c3.1,0,4.6-1.4,4.6-4.2v-3.5c0-2.8-1.5-4.2-4.6-4.2h-7.5c-9.4,0-14.2-4.4-14.2-13.2
				v-3.5c0-8.8,4.7-13.2,14.2-13.2h21.6v9h-21.6c-3.1,0-4.7,1.4-4.7,4.2v3.5c0,2.8,1.6,4.2,4.7,4.2h7.5c9.4,0,14.1,4.4,14.1,13.2
				v3.5c0,8.8-4.7,13.2-14.1,13.2H343.5z"/>
			<path class="st0" d="M396.3,115.1v50.7h-9.5v-50.7H396.3z"/>
			<path class="st0" d="M444.1,165.8h-9.6l-3.5-10.5h-17.8l-3.5,10.5h-9.6l16.4-50.7h11.2L444.1,165.8z M416.1,146.4h12l-6-19.9
				L416.1,146.4z"/>
			<path class="st0" d="M489.5,115.1c9.4,0,14.1,4.4,14.1,13.2v3.5c0,4.7-2.1,7.6-6.2,8.7c4.1,1.1,6.2,4,6.2,8.7v3.5
				c0,8.8-4.7,13.2-14.1,13.2h-21.7v-50.7H489.5z M477.4,124.1V136h12.2c3.1,0,4.6-1.4,4.6-4.2v-3.5c0-2.8-1.5-4.2-4.6-4.2H477.4z
				 M477.4,144.9v11.9h12.2c3.1,0,4.6-1.4,4.6-4.2v-3.5c0-2.8-1.5-4.2-4.6-4.2H477.4z"/>
			<path class="st0" d="M551.4,165.8h-9.6l-3.5-10.5h-17.8l-3.5,10.5h-9.6l16.4-50.7H535L551.4,165.8z M523.4,146.4h12l-6-19.9
				L523.4,146.4z"/>
			<path class="st0" d="M564.3,115.1l21,32.4v-32.4h9.5v50.7h-9.1l-21-32.4v32.4h-9.5v-50.7H564.3z"/>
			<path class="st0" d="M611.7,152.6c0,2.8,1.6,4.2,4.7,4.2h7.5c3.1,0,4.6-1.4,4.6-4.2v-7.7h-11.3v-9H638v16.7
				c0,8.8-4.7,13.2-14.1,13.2h-7.5c-9.4,0-14.2-4.4-14.2-13.2v-24.4c0-8.8,4.7-13.2,14.2-13.2H638v9h-21.6c-3.1,0-4.7,1.4-4.7,4.2
				V152.6z"/>
			<path class="st0" d="M645.5,165.8v-50.7h9.5v22l19.2-22h12l-21.5,25.3l21.5,25.4h-12l-19.2-22v22H645.5z"/>
			<path class="st0" d="M729.5,152.6c0,8.8-4.7,13.2-14.2,13.2H706c-9.4,0-14.2-4.4-14.2-13.2v-24.4c0-8.8,4.7-13.2,14.2-13.2h9.4
				c9.4,0,14.2,4.4,14.2,13.2V152.6z M701.4,152.6c0,2.8,1.6,4.2,4.7,4.2h9.4c3.1,0,4.7-1.4,4.7-4.2v-24.4c0-2.8-1.6-4.2-4.7-4.2
				H706c-3.1,0-4.7,1.4-4.7,4.2V152.6z"/>
			<path class="st0" d="M737.1,165.8v-50.7h9.5v22l19.2-22h12l-21.5,25.3l21.5,25.4h-12l-19.2-22v22H737.1z"/>
			<path class="st0" d="M313.7,213.7h-6.3v15.7h-7.1v-38h16.3c7.1,0,10.6,3.3,10.6,9.9v2.6c0,5.9-2.1,9.1-6.3,9.6l6.6,15.9h-7.2
				L313.7,213.7z M307.4,198.1v8.9h9.1c2.3,0,3.5-1.1,3.5-3.2v-2.6c0-2.1-1.2-3.2-3.5-3.2H307.4z"/>
			<path class="st0" d="M357.1,207v6.7h-16.9v8.9h16.9v6.7h-24v-38h24v6.7h-16.9v8.9H357.1z"/>
			<path class="st0" d="M369.9,219.5c0,2.1,1.2,3.2,3.5,3.2h5.6c2.3,0,3.5-1.1,3.5-3.2v-5.8H374V207h15.6v12.5
				c0,6.6-3.5,9.9-10.6,9.9h-5.6c-7.1,0-10.6-3.3-10.6-9.9v-18.3c0-6.6,3.5-9.9,10.6-9.9h16.2v6.7h-16.2c-2.3,0-3.5,1.1-3.5,3.2
				V219.5z"/>
			<path class="st0" d="M402.4,191.3v38h-7.1v-38H402.4z"/>
			<path class="st0" d="M436.2,219.5c0,6.6-3.5,9.9-10.6,9.9h-7c-7.1,0-10.6-3.3-10.6-9.9v-18.3c0-6.6,3.5-9.9,10.6-9.9h7
				c7.1,0,10.6,3.3,10.6,9.9V219.5z M415.1,219.5c0,2.1,1.2,3.2,3.5,3.2h7c2.3,0,3.5-1.1,3.5-3.2v-18.3c0-2.1-1.2-3.2-3.5-3.2h-7
				c-2.3,0-3.5,1.1-3.5,3.2V219.5z"/>
			<path class="st0" d="M448.7,191.3l15.7,24.3v-24.3h7.1v38h-6.8L449,205.1v24.3h-7.1v-38H448.7z"/>
			<path class="st0" d="M507.4,229.4h-7.2l-2.6-7.8h-13.4l-2.6,7.8h-7.2l12.3-38h8.4L507.4,229.4z M486.4,214.8h9l-4.5-14.9
				L486.4,214.8z"/>
			<path class="st0" d="M517.3,222.6h16.9v6.7h-24v-38h7.1V222.6z"/>
			<path class="st0" d="M562,219.5c0,2.1,1.2,3.2,3.5,3.2h13.4v6.7h-13.4c-7.1,0-10.6-3.3-10.6-9.9v-18.3c0-6.6,3.5-9.9,10.6-9.9
				h13.4v6.7h-13.4c-2.3,0-3.5,1.1-3.5,3.2V219.5z"/>
			<path class="st0" d="M612.8,219.5c0,6.6-3.5,9.9-10.6,9.9h-7c-7.1,0-10.6-3.3-10.6-9.9v-18.3c0-6.6,3.5-9.9,10.6-9.9h7
				c7.1,0,10.6,3.3,10.6,9.9V219.5z M591.6,219.5c0,2.1,1.2,3.2,3.5,3.2h7c2.3,0,3.5-1.1,3.5-3.2v-18.3c0-2.1-1.2-3.2-3.5-3.2h-7
				c-2.3,0-3.5,1.1-3.5,3.2V219.5z"/>
			<path class="st0" d="M625.2,191.3l15.7,24.3v-24.3h7.1v38h-6.8l-15.7-24.3v24.3h-7.1v-38H625.2z"/>
			<path class="st0" d="M680.5,191.3v6.7h-9.8v31.3h-7.1v-31.3h-9.9v-6.7H680.5z"/>
			<path class="st0" d="M710.2,207v6.7h-16.9v8.9h16.9v6.7h-24v-38h24v6.7h-16.9v8.9H710.2z"/>
			<path class="st0" d="M715.8,229.4v-6.7H732c2.3,0,3.5-1.1,3.5-3.2v-2.6c0-2.1-1.2-3.2-3.5-3.2h-5.6c-7.1,0-10.6-3.3-10.6-9.9
				v-2.6c0-6.6,3.5-9.9,10.6-9.9h16.2v6.7h-16.2c-2.3,0-3.5,1.1-3.5,3.2v2.6c0,2.1,1.2,3.2,3.5,3.2h5.6c7.1,0,10.6,3.3,10.6,9.9v2.6
				c0,6.6-3.5,9.9-10.6,9.9H715.8z"/>
			<path class="st0" d="M775.1,191.3v6.7h-9.8v31.3h-7.1v-31.3h-9.9v-6.7H775.1z"/>
		</g>
		<g>
			<path class="st0" d="M298.8,86.7c-0.2-4.9,1.7-8.5,5-11.9c7-7.3,18.1-10.2,18.1-17.2c0-2.7-2.6-4.2-5.1-4.2c-4.8,0-6.1,4-6.1,8.1
				h-11.2C299.8,49,306.5,44,317.4,44c8.7,0,16.9,3.8,16.9,13.6c0,7.4-5.7,10.4-11.2,13.9c-3,1.9-6.3,3.5-8.5,5.1h19.5v10.2H298.8z"
				/>
			<path class="st0" d="M357.6,44c10.9,0,18.2,7.2,18.2,21.2c0,12-4.6,22.4-18.2,22.4c-13.6,0-18.3-10.3-18.3-22.3
				C339.4,49.8,348,44,357.6,44z M363.4,65.8c0-4.4,0.2-12.5-5.9-12.5c-5.6,0-5.7,8.7-5.7,12.7c0,7.3,1.1,12.3,5.9,12.3
				C362,78.3,363.4,72.9,363.4,65.8z"/>
			<path class="st0" d="M404.3,86.7h-12.4V62.1h-9.7v-8.5c6.6-0.1,11.3-2.4,12.7-9.7h9.4V86.7z"/>
			<path class="st0" d="M435.8,55.8c-0.7-2.3-2.6-3.3-5-3.3c-4.6,0-6.5,4.2-6.4,9.7c3.3-2.3,5.9-3,9.9-3c9.8,0,14.2,7.6,14.2,13.6
				c0,10.3-7.3,14.9-16.8,14.9c-12.2,0-19.8-6.6-19.8-21.9c0-13,6.7-21.7,18.4-21.7c7.9,0,15.4,2.6,17.2,11.1L435.8,55.8z
				 M424.9,73.3c0,3,2.6,5.4,5.6,5.4c3.6,0,5.5-2.3,5.5-5.9c0-3.3-2.1-5.6-5.3-5.6C426.5,67.3,424.9,70,424.9,73.3z"/>
			<path class="st0" d="M506.1,78.4c0,5,1.1,6.1,2.5,6.6v1.7h-12c-0.6-2-0.8-2.6-1-5c-2.5,2.6-6.1,6.1-13.7,6.1
				c-6.4,0-12.9-3.6-12.9-12.3c0-8.3,5.3-12.5,12.3-13.5l10-1.5c1.8-0.2,3.9-1,3.9-3.3c0-4.7-4.5-4.9-7.3-4.9
				c-5.6,0-6.5,3.4-6.8,5.9h-10.7c1.3-13,10.3-14.8,19-14.8c6,0,16.9,1.8,16.9,12.3V78.4z M495.2,66.1c-1.1,0.9-2.9,1.6-7.6,2.3
				c-4.1,0.7-7.6,1.8-7.6,6.4c0,3.9,3,5.1,5.2,5.1c4.9,0,10-3.2,10-8.4V66.1z"/>
			<path class="st0" d="M552.5,71.2c-0.4,4.4-3.8,16.6-19.3,16.6c-15.9,0-19.6-12.2-19.6-21.1c0-13.7,6-23.5,20.3-23.5
				c6.7,0,17.7,3,18.7,16.2h-11.3c-0.5-2.7-2.1-6.8-6.8-6.8h-0.6c-7,0-8.8,7-8.8,12.3c0,4.6,0.2,13.8,8.6,13.8
				c5.7,0,7.6-5.4,7.6-7.4H552.5z"/>
			<path class="st0" d="M620.9,86.7h-11.1V61c0-6.3-2.8-8.4-6.1-8.4c-5.6,0-7.6,3.7-7.6,8.7v25.4H585V61.2c0-3.6,0-8.6-6.7-8.6
				c-5.3,0-6.9,3.7-6.9,8.3v25.8h-11.1V44.3h10.7v6.2h0.2c1.4-2.8,4.5-7.3,12-7.3c6.1,0,8.9,2.2,11.8,6.8c1.4-2.1,4.5-6.8,11.3-6.8
				c8.3,0,14.7,4.9,14.7,14.2V86.7z"/>
			<path class="st0" d="M632.1,36.4v-7.1h5.3v7.1H632.1z M632.4,86.7V45.4h4.8v41.2H632.4z"/>
			<path class="st0" d="M678.5,58.4c-1.7-6.1-5.9-9.8-12.3-9.8c-9.8,0-13.9,8.9-13.9,17.5c0,8.7,4,17.4,13.9,17.4
				c7.1,0,11.5-4.2,12.7-11.1h5.1c-1.7,9.2-7.4,15.4-17.8,15.4c-13.1,0-19-9.5-19-21.7c0-11.5,6.6-21.8,19-21.8
				c9.5,0,15.7,4.5,17.1,14.1H678.5z"/>
			<path class="st0" d="M698.9,102.9h-4.8V45.4h4.8v7.2h0.2c2.8-5.4,9.1-8.4,14.3-8.4c13.3,0,18.6,9.5,18.6,21.7
				c0,11.5-5.8,21.8-18.4,21.8c-5.8,0-11.7-2.7-14.7-7.7V102.9z M712.9,83.5c9.9,0,14.5-8.4,14.1-18.7c-0.1-10.4-6.1-16.2-14.1-16.2
				c-9,0-13.9,7.6-13.9,17.6C698.9,75.5,704.2,83.5,712.9,83.5z"/>
			<path class="st0" d="M771.5,58.4c-1.7-6.1-5.9-9.8-12.3-9.8c-9.8,0-13.9,8.9-13.9,17.5c0,8.7,4,17.4,13.9,17.4
				c7.1,0,11.5-4.2,12.7-11.1h5.1c-1.7,9.2-7.4,15.4-17.8,15.4c-13.1,0-19-9.5-19-21.7c0-11.5,6.6-21.8,19-21.8
				c9.5,0,15.7,4.5,17.1,14.1H771.5z"/>
		</g>
	</g>
	<g>
		<rect x="263" y="43.1" class="st0" width="2" height="185.5"/>
	</g>
</g>
</svg>
